
<svg width="130px" height="130px"  xmlns="http://www.w3.org/2000/svg" version="1.1" >
	<g id="g11" transform="translate(65, 65)">
		<g id="g11" transform="scale(0.4)" >
			<path xmlns="http://www.w3.org/2000/svg" d="M0,150 a150,150 0 0,0 150,-150 " stroke="black" stroke-width="3" fill="none" transform="rotate(132.986)" stroke-opacity="0.1"><!-- outer most ring--></path>

<path xmlns="http://www.w3.org/2000/svg" d="M0,150 a150,150 0 0,0 150,-150 " stroke="black" stroke-width="5" fill="none" transform="rotate(262.986)" stroke-opacity="0.1"><!-- outer most ring--></path>
<path xmlns="http://www.w3.org/2000/svg" d="M0,150 a150,150 0 0,0 150,-150 " stroke="black" stroke-width="5" fill="none" transform="rotate(362.986)" stroke-opacity="0.1"><!-- outer most ring--></path>




			<path xmlns="http://www.w3.org/2000/svg" d="M -100,50 a100,100 0 0,0 50,50" stroke="black" stroke-width="5" fill="none" transform="rotate(362.986)" stroke-opacity="0.1"><!-- part of broken ring--></path>
			<path xmlns="http://www.w3.org/2000/svg" d="M -100,50 a100,100 0 0,0 50,50" stroke="black" stroke-width="7" fill="none" transform="rotate(302.986)" stroke-opacity="0.1"><!-- part of broken ring--></path>

			<path xmlns="http://www.w3.org/2000/svg" d="M -100,80 a130,130 0 0,0 80,50" stroke="black" stroke-width="2" fill="none" transform="rotate(302.986)" stroke-opacity="0.1"><!-- part of broken ring--></path>



			<path xmlns="http://www.w3.org/2000/svg" d="M0,100 a100,100 0 0,0 100,-100 " stroke="black" stroke-width="2" fill="none" transform="rotate(362.986)" stroke-opacity="0.1"><!-- outer most ring--></path>
<path xmlns="http://www.w3.org/2000/svg" d="M0,100 a100,100 0 0,0 100,-100 " stroke="black" stroke-width="5" fill="none" transform="rotate(162.986)" stroke-opacity="0.1"><!-- outer most ring--></path>
<path xmlns="http://www.w3.org/2000/svg" d="M0,100 a100,100 0 0,0 100,-100 " stroke="black" stroke-width="5" fill="none" transform="rotate(362.986)" stroke-opacity="0.1"><!-- outer most ring--></path>
			<path xmlns="http://www.w3.org/2000/svg" d="M-100,0 a100,100 0 1,0 100,-100 " stroke="black" stroke-width="1" fill="none" transform="rotate(362.986)" stroke-opacity="0.02"><!-- second ring--></path>





			<path xmlns="http://www.w3.org/2000/svg" d="M -100,50 a100,100 0 0,0 50,50" stroke="black" stroke-width="5" fill="none" transform="rotate(362.986)" stroke-opacity="0.1"><!-- part of broken ring--></path>
			<path xmlns="http://www.w3.org/2000/svg" d="M -100,50 a100,100 0 0,0 50,50" stroke="black" stroke-width="5" fill="none" transform="rotate(302.986)" stroke-opacity="0.1"><!-- part of broken ring--></path>




			<path xmlns="http://www.w3.org/2000/svg" d="M-35,35 a50,50 0 1,0 35,-85" stroke="black" stroke-width="5" fill="none" transform="rotate(362.986)" stroke-opacity="0.1"><!-- inner ring--></path>
			<path xmlns="http://www.w3.org/2000/svg" d="M0,70 a70,70 0 0,0 70,-70 " stroke="black" stroke-width="15" fill="none" transform="rotate(262.986)" stroke-opacity="0.02"><!-- outer most ring--></path>
		</g>
	</g>
</svg>
